<?xml version="1.0" encoding="UTF-8" standalone="no"?>
<svg width="28px" height="26px" viewBox="0 0 28 26" version="1.1" xmlns="http://www.w3.org/2000/svg" xmlns:xlink="http://www.w3.org/1999/xlink">
    <!-- Generator: sketchtool 48.2 (47327) - http://www.bohemiancoding.com/sketch -->
    <title>DCB91533-D07F-49E1-B8B6-E952E1B0D837</title>
    <desc>Created with sketchtool.</desc>
    <defs></defs>
    <g id="Add-Equipment" stroke="none" stroke-width="1" fill="none" fill-rule="evenodd" transform="translate(-627.000000, -133.000000)" opacity="0.432427705">
        <g id="Group-5" transform="translate(516.000000, 0.000000)" fill="#323232">
            <g id="Group-8" transform="translate(46.000000, 86.000000)">
                <g id="Group-6">
                    <path d="M76.8636095,63.0138249 C76.8636095,61.900148 77.2420302,60.9592972 77.9988831,60.1912442 C78.755736,59.4231912 79.6639458,59.0391705 80.7235398,59.0391705 C81.8209765,59.0391705 82.7481074,59.4231912 83.5049603,60.1912442 C84.2618131,60.9592972 84.6402339,61.900148 84.6402339,63.0138249 C84.6402339,64.0890991 84.2618131,65.0107488 83.5049603,65.7788018 C82.7481074,66.5468548 81.8209765,66.9308756 80.7235398,66.9308756 C79.6261032,66.9308756 78.7084328,66.5564554 77.9705013,65.8076037 C77.2325697,65.058752 76.8636095,64.1275017 76.8636095,63.0138249 Z M80.7235398,69.1198157 C82.3886162,69.1198157 83.8171545,68.5245835 85.0091978,67.3341014 C86.2012411,66.1436192 86.7972538,64.7035415 86.7972538,63.0138249 C86.7972538,61.3241083 86.2012411,59.87443 85.0091978,58.6647465 C83.8171545,57.4550631 82.3886162,56.8502304 80.7235398,56.8502304 C79.0584635,56.8502304 77.6393857,57.4550631 76.4662637,58.6647465 C75.2931418,59.87443 74.7065896,61.3241083 74.7065896,63.0138249 C74.7065896,64.7035415 75.2931418,66.1436192 76.4662637,67.3341014 C77.6393857,68.5245835 79.0584635,69.1198157 80.7235398,69.1198157 Z M72.2657513,58.0599078 L72.2657513,54.3732719 L75.8986269,54.3732719 L75.8986269,50.6866359 L84.3564155,50.6866359 L86.5701991,53.1635945 L90.4301294,53.1635945 C91.0734544,53.1635945 91.6410855,53.4132079 92.1330399,53.9124424 C92.6249942,54.4116768 92.8709677,54.9877079 92.8709677,55.640553 L92.8709677,70.3870968 C92.8709677,71.0399418 92.6249942,71.6063724 92.1330399,72.0864055 C91.6410855,72.5664387 91.0734544,72.8064516 90.4301294,72.8064516 L71.0737139,72.8064516 C70.430389,72.8064516 69.8627579,72.5664387 69.3708035,72.0864055 C68.8788491,71.6063724 68.6328756,71.0399418 68.6328756,70.3870968 L68.6328756,58.0599078 L72.2657513,58.0599078 Z M68.6328756,50.6866359 L68.6328756,47 L71.0737139,47 L71.0737139,50.6866359 L74.7065896,50.6866359 L74.7065896,53.1635945 L71.0737139,53.1635945 L71.0737139,56.8502304 L68.6328756,56.8502304 L68.6328756,53.1635945 L65,53.1635945 L65,50.6866359 L68.6328756,50.6866359 Z" id="add-a-photo---MaterialIcons-Regular"></path>
                </g>
            </g>
        </g>
    </g>
</svg>